<svg version="1.1" id="Layer_1" xmlns="http://www.w3.org/2000/svg" xmlns:xlink="http://www.w3.org/1999/xlink" x="0px" y="0px"
	 width="100%" viewBox="0 0 512 512" enable-background="new 0 0 512 512" xml:space="preserve">
<path fill="#000000" opacity="1.000000" stroke="none" 
	d="
M249.000000,513.000000 
	C166.350861,513.000000 83.701729,513.000000 1.026297,513.000000 
	C1.026297,342.387054 1.026297,171.774124 1.026297,1.080588 
	C171.576706,1.080588 342.153473,1.080588 512.865112,1.080588 
	C512.865112,171.666595 512.865112,342.333282 512.871765,513.000000 
	C431.562286,513.000000 350.246155,513.000000 268.156860,512.691040 
	C280.685425,506.213501 294.202423,500.759827 309.536835,499.888489 
	C318.648041,499.898987 327.303131,499.848633 336.328674,499.878418 
	C337.453613,500.003021 338.208099,500.047455 339.170227,500.474487 
	C347.114258,500.904755 354.851196,501.019684 362.586639,500.956512 
	C364.738739,500.938965 366.886536,500.393829 369.457947,500.049377 
	C371.967590,499.688843 374.055542,499.369629 376.594055,499.027100 
	C385.506836,497.617920 394.123016,496.817902 402.379486,494.648712 
	C408.283081,493.097687 414.089935,490.312714 419.252808,487.005585 
	C427.570618,481.677521 435.389618,475.753174 441.874390,467.912201 
	C450.400238,457.603271 457.625854,446.678528 461.919678,434.073395 
	C465.118713,424.682098 466.934326,414.820801 470.107910,405.419250 
	C474.794159,391.536499 474.517578,376.985016 472.411072,363.348022 
	C469.747620,346.105072 464.630920,328.814362 452.981689,314.696808 
	C445.705933,305.879425 438.553864,296.943054 428.569122,290.840149 
	C423.916321,287.996277 419.549469,284.684540 415.187683,281.677704 
	C420.381439,271.936920 425.891388,262.614960 430.429382,252.841660 
	C436.395050,239.993759 441.063629,226.633423 443.194672,212.507477 
	C446.415405,191.158401 451.336761,169.917023 452.591553,148.457748 
	C454.171021,121.446449 454.769196,94.073677 446.917419,67.596550 
	C443.081909,54.662624 438.788940,41.866680 428.050018,32.436131 
	C419.961792,25.333355 410.588196,23.825996 401.186890,27.239029 
	C389.631744,31.434006 381.009033,40.067337 377.175354,51.789452 
	C372.080078,67.368958 368.444824,83.420883 363.971527,99.210129 
	C357.672424,121.444038 352.479919,144.068253 340.326263,164.212921 
	C329.894989,181.502823 319.787811,198.988251 309.256226,216.864304 
	C301.606476,204.895462 292.331482,196.303909 281.270874,190.236649 
	C271.234406,184.731140 260.547302,180.087143 249.665009,176.543854 
	C239.785049,173.326920 229.328949,170.925034 218.995178,170.282852 
	C204.007050,169.351425 189.125122,170.390656 174.060181,173.533859 
	C155.181717,177.472733 138.277054,185.253204 121.664185,194.079773 
	C110.361954,200.084763 99.922859,207.505890 92.732925,218.696793 
	C88.051735,225.982925 83.035416,232.822800 80.797226,241.568512 
	C77.973099,252.603806 76.949738,264.286560 68.478600,273.566376 
	C64.705658,277.699524 66.913780,284.959106 72.928185,286.994110 
	C84.072807,290.764954 94.386803,287.983154 103.487244,281.755066 
	C113.422966,274.955292 122.549019,266.973694 132.039536,259.521881 
	C151.715530,244.072601 174.470459,234.571304 197.667206,226.110458 
	C207.892822,222.380753 218.568253,219.884277 229.421539,216.914871 
	C232.846436,218.006470 235.952591,218.853043 238.920990,220.043213 
	C251.513443,225.091949 259.829742,237.071014 254.297974,251.164810 
	C252.728088,255.164551 250.418716,258.954285 247.972137,262.512787 
	C243.017532,269.719238 238.374268,277.304993 232.409286,283.604370 
	C226.620239,289.717926 219.520233,294.666595 212.674606,299.688843 
	C192.328323,314.615723 171.950424,329.506012 151.345551,344.072113 
	C130.829407,358.575470 110.084175,372.757965 89.323730,386.911499 
	C74.721664,396.866455 59.904285,406.505096 45.223869,416.345856 
	C34.249603,423.702301 25.120298,432.918427 17.901031,443.985046 
	C17.947031,444.004211 17.988939,443.913788 17.732445,443.984741 
	C17.359680,444.359833 17.243412,444.663971 16.966007,445.301514 
	C13.297863,449.035187 14.156464,453.059265 15.114840,457.518555 
	C15.538557,460.290192 15.737219,462.747131 16.539268,464.988098 
	C19.193302,472.403717 25.123384,476.799530 31.856167,479.891083 
	C49.326195,487.912964 68.171799,490.197144 87.011841,490.758392 
	C103.485062,491.249084 120.032600,489.882233 136.522583,488.914703 
	C145.312241,488.398987 154.185379,487.643280 162.782745,485.852722 
	C181.873062,481.876801 201.179413,478.578949 218.736847,469.155640 
	C233.111282,461.440613 248.330566,455.204163 262.285034,446.828888 
	C276.450348,438.326996 290.014282,428.623016 302.955200,418.330933 
	C319.756897,404.968323 335.952789,390.803497 351.893311,376.412262 
	C363.001556,366.383575 373.242523,355.394226 384.212921,344.973450 
	C388.037354,352.485596 392.109863,359.645721 394.860596,367.281952 
	C398.754211,378.090973 398.378479,389.541382 397.608643,401.095673 
	C397.229095,403.272766 397.206024,405.235809 397.128967,407.335144 
	C397.074951,407.471436 397.076691,407.764618 396.713776,407.983276 
	C394.950195,417.903595 392.414886,427.265320 386.931366,435.503876 
	C377.440765,449.762817 363.172241,456.683685 347.209930,461.043427 
	C338.704102,463.366608 329.349091,464.263489 323.681671,472.931366 
	C322.898071,473.325989 322.438263,473.671692 321.997498,474.015411 
	C322.016602,474.013397 322.013611,473.975159 321.755859,474.047791 
	C321.325745,474.419220 321.153381,474.717957 320.994385,475.016541 
	C321.007721,475.016327 321.019257,474.992889 320.638428,474.988403 
	C312.734589,477.320129 305.353485,480.731781 297.656250,481.747437 
	C285.269806,483.381805 272.674683,483.434448 259.722717,484.060730 
	C257.465240,484.030151 255.652756,484.094269 253.436279,484.116699 
	C243.482452,484.167023 238.141632,490.325745 239.176102,496.833374 
	C239.747116,500.425415 242.326691,503.698212 244.101746,507.434296 
	C245.801819,509.502441 247.400909,511.251221 249.000000,513.000000 
z"/>
<path fill="#A5D286" opacity="1.000000" stroke="none" 
	d="
M309.080750,499.827606 
	C294.202423,500.759827 280.685425,506.213501 267.691864,512.691040 
	C265.958344,513.000000 263.916656,513.000000 261.660828,512.750977 
	C269.672211,508.008759 272.789368,501.559753 270.507355,494.291077 
	C268.843872,488.992645 264.451172,486.676178 260.167725,484.155396 
	C272.674683,483.434448 285.269806,483.381805 297.656250,481.747437 
	C305.353485,480.731781 312.734589,477.320129 320.651794,475.341492 
	C319.941437,476.864166 318.932312,478.141754 317.715179,479.174103 
	C313.322418,482.900116 308.662720,486.334442 304.477692,490.275909 
	C300.121979,494.378204 301.048584,497.194519 306.845886,498.901489 
	C307.615051,499.127930 308.336975,499.514954 309.080750,499.827606 
z"/>
<path fill="#417520" opacity="1.000000" stroke="none" 
	d="
M259.722717,484.060730 
	C264.451172,486.676178 268.843872,488.992645 270.507355,494.291077 
	C272.789368,501.559753 269.672211,508.008759 261.223328,512.750977 
	C257.307098,513.000000 253.614182,513.000000 249.460648,513.000000 
	C247.400909,511.251221 245.801819,509.502441 244.081238,507.005432 
	C242.059692,493.152740 243.180069,490.646881 253.840286,484.158386 
	C255.652756,484.094269 257.465240,484.030151 259.722717,484.060730 
z"/>
<path fill="#FFE8B6" opacity="1.000000" stroke="none" 
	d="
M397.965149,400.881622 
	C398.378479,389.541382 398.754211,378.090973 394.860596,367.281952 
	C392.109863,359.645721 388.037354,352.485596 384.251678,344.594727 
	C383.229218,342.107605 382.987152,339.733246 381.714081,338.234833 
	C372.810242,327.754913 364.145508,317.011627 354.522675,307.218994 
	C344.011841,296.522705 331.381531,288.860321 316.562744,285.147949 
	C314.757477,284.695740 312.483856,282.691498 311.998047,280.964630 
	C309.395996,271.715576 306.900757,262.400879 305.103699,252.968857 
	C302.062225,237.005127 295.098206,224.519180 279.379364,217.527771 
	C266.109314,211.625549 252.674240,211.353638 238.866592,213.609344 
	C235.505310,214.158447 232.310699,215.727692 229.039444,216.827881 
	C218.568253,219.884277 207.892822,222.380753 197.667206,226.110458 
	C174.470459,234.571304 151.715530,244.072601 132.039536,259.521881 
	C122.549019,266.973694 113.422966,274.955292 103.487244,281.755066 
	C94.386803,287.983154 84.072807,290.764954 72.928185,286.994110 
	C66.913780,284.959106 64.705658,277.699524 68.478600,273.566376 
	C76.949738,264.286560 77.973099,252.603806 80.797226,241.568512 
	C83.035416,232.822800 88.051735,225.982925 92.732925,218.696793 
	C99.922859,207.505890 110.361954,200.084763 121.664185,194.079773 
	C138.277054,185.253204 155.181717,177.472733 174.060181,173.533859 
	C189.125122,170.390656 204.007050,169.351425 218.995178,170.282852 
	C229.328949,170.925034 239.785049,173.326920 249.665009,176.543854 
	C260.547302,180.087143 271.234406,184.731140 281.270874,190.236649 
	C292.331482,196.303909 301.606476,204.895462 309.256226,216.864304 
	C319.787811,198.988251 329.894989,181.502823 340.326263,164.212921 
	C352.479919,144.068253 357.672424,121.444038 363.971527,99.210129 
	C368.444824,83.420883 372.080078,67.368958 377.175354,51.789452 
	C381.009033,40.067337 389.631744,31.434006 401.186890,27.239029 
	C410.588196,23.825996 419.961792,25.333355 428.050018,32.436131 
	C438.788940,41.866680 443.081909,54.662624 446.917419,67.596550 
	C454.769196,94.073677 454.171021,121.446449 452.591553,148.457748 
	C451.336761,169.917023 446.415405,191.158401 443.194672,212.507477 
	C441.063629,226.633423 436.395050,239.993759 430.429382,252.841660 
	C425.891388,262.614960 420.381439,271.936920 415.187683,281.677704 
	C419.549469,284.684540 423.916321,287.996277 428.569122,290.840149 
	C438.553864,296.943054 445.705933,305.879425 452.981689,314.696808 
	C464.630920,328.814362 469.747620,346.105072 472.411072,363.348022 
	C474.517578,376.985016 474.794159,391.536499 470.107910,405.419250 
	C466.934326,414.820801 465.118713,424.682098 461.919678,434.073395 
	C457.625854,446.678528 450.400238,457.603271 441.874390,467.912201 
	C435.389618,475.753174 427.570618,481.677521 419.252808,487.005585 
	C414.089935,490.312714 408.283081,493.097687 402.379486,494.648712 
	C394.123016,496.817902 385.506836,497.617920 376.116028,499.007446 
	C362.126434,498.998718 349.065399,498.986359 335.628723,498.923279 
	C324.704559,496.041412 323.443146,492.540955 330.160767,483.753632 
	C338.173462,473.272247 347.509277,465.155151 361.021912,461.569000 
	C368.525055,459.577759 376.145905,454.795380 381.662903,449.235870 
	C392.765320,438.047882 396.918335,423.450470 397.076691,407.764618 
	C397.076691,407.764618 397.074951,407.471436 397.361786,407.000702 
	C397.754120,404.647186 397.859619,402.764404 397.965149,400.881622 
M426.057404,213.579514 
	C427.009918,210.221619 428.231018,206.914078 428.871277,203.497665 
	C432.962219,181.667999 437.754883,159.922440 440.619781,137.928192 
	C442.340607,124.716957 441.158661,111.101952 440.880615,97.676697 
	C440.821869,94.839279 439.016907,92.038017 438.016479,89.220093 
	C435.863220,91.475952 432.758545,93.367058 431.728577,96.053574 
	C428.106384,105.501701 424.890747,115.134720 422.083405,124.859962 
	C416.829437,143.061050 412.799225,161.655579 406.757355,179.579956 
	C396.784851,209.165283 382.597412,236.792023 364.482300,262.322418 
	C362.519897,265.088074 360.895477,268.093536 358.400757,272.147156 
	C362.740845,271.680817 365.846222,270.769775 368.791199,271.138824 
	C377.654175,272.249420 386.517334,273.563568 395.249176,275.416809 
	C398.797089,276.169830 400.237549,275.251099 401.934753,272.361877 
	C412.640076,254.138031 419.618622,234.399612 426.057404,213.579514 
z"/>
<path fill="#FFCC4D" opacity="1.000000" stroke="none" 
	d="
M229.421539,216.914856 
	C232.310699,215.727692 235.505310,214.158447 238.866592,213.609344 
	C252.674240,211.353638 266.109314,211.625549 279.379364,217.527771 
	C295.098206,224.519180 302.062225,237.005127 305.103699,252.968857 
	C306.900757,262.400879 309.395996,271.715576 311.998047,280.964630 
	C312.483856,282.691498 314.757477,284.695740 316.562744,285.147949 
	C331.381531,288.860321 344.011841,296.522705 354.522675,307.218994 
	C364.145508,317.011627 372.810242,327.754913 381.714081,338.234833 
	C382.987152,339.733246 383.229218,342.107605 383.909668,344.455261 
	C373.242523,355.394226 363.001556,366.383575 351.893311,376.412262 
	C335.952789,390.803497 319.756897,404.968323 302.955200,418.330933 
	C290.014282,428.623016 276.450348,438.326996 262.285034,446.828888 
	C248.330566,455.204163 233.111282,461.440613 218.736847,469.155640 
	C201.179413,478.578949 181.873062,481.876801 162.782745,485.852722 
	C154.185379,487.643280 145.312241,488.398987 136.522583,488.914703 
	C120.032600,489.882233 103.485062,491.249084 87.011841,490.758392 
	C68.171799,490.197144 49.326195,487.912964 31.856167,479.891083 
	C25.123384,476.799530 19.193302,472.403717 16.539268,464.988098 
	C15.737219,462.747131 15.538557,460.290192 15.343027,457.762756 
	C15.985045,458.522156 16.307127,459.469208 16.716372,460.377014 
	C20.406607,468.562622 24.888422,471.163391 33.178318,469.953278 
	C39.728912,468.997040 42.834568,465.096344 43.765263,456.339813 
	C44.028152,453.866394 43.899956,451.346252 43.873802,448.848358 
	C43.826954,444.374512 41.517384,441.848572 37.054749,442.123566 
	C30.641356,442.518860 24.253683,443.331421 17.855030,443.965881 
	C25.120298,432.918427 34.249603,423.702301 45.223869,416.345856 
	C59.904285,406.505096 74.721664,396.866455 89.323730,386.911499 
	C110.084175,372.757965 130.829407,358.575470 151.345551,344.072113 
	C171.950424,329.506012 192.328323,314.615723 212.674606,299.688843 
	C219.520233,294.666595 226.620239,289.717926 232.409286,283.604370 
	C238.374268,277.304993 243.017532,269.719238 247.972137,262.512787 
	C250.418716,258.954285 252.728088,255.164551 254.297974,251.164810 
	C259.829742,237.071014 251.513443,225.091949 238.920990,220.043213 
	C235.952591,218.853043 232.846436,218.006470 229.421539,216.914856 
M143.012070,359.501373 
	C121.636467,375.823853 100.243507,392.123718 78.896118,408.483032 
	C72.709015,413.224426 66.279549,417.742371 60.641094,423.080841 
	C55.009109,428.413177 56.826492,433.764221 64.439590,435.596436 
	C67.799843,436.405090 71.368553,437.120453 74.766769,436.865814 
	C90.129990,435.714630 105.609253,435.089081 120.783363,432.641479 
	C156.925171,426.811768 189.963669,412.617157 220.265015,392.305328 
	C236.931976,381.133026 253.354263,369.488678 269.022766,356.975189 
	C278.005615,349.801178 285.786560,340.894775 293.125763,331.960876 
	C299.190186,324.578735 296.836517,312.841522 286.770477,307.641205 
	C276.193359,302.176910 265.037140,300.542419 253.608749,300.126556 
	C246.384369,299.863617 238.319000,299.261627 232.016174,302.000153 
	C218.852356,307.719757 206.090363,314.771820 194.106033,322.701355 
	C176.812851,334.143463 160.357559,346.851929 143.012070,359.501373 
z"/>
<path fill="#FDCD51" opacity="1.000000" stroke="none" 
	d="
M396.713776,407.983276 
	C396.918335,423.450470 392.765320,438.047882 381.662903,449.235870 
	C376.145905,454.795380 368.525055,459.577759 361.021912,461.569000 
	C347.509277,465.155151 338.173462,473.272247 330.160767,483.753632 
	C323.443146,492.540955 324.704559,496.041412 335.616730,499.129456 
	C335.980377,499.386292 335.958252,499.798248 335.958252,499.798279 
	C327.303131,499.848633 318.648041,499.898987 309.536835,499.888489 
	C308.336975,499.514954 307.615051,499.127930 306.845886,498.901489 
	C301.048584,497.194519 300.121979,494.378204 304.477692,490.275909 
	C308.662720,486.334442 313.322418,482.900116 317.715179,479.174103 
	C318.932312,478.141754 319.941437,476.864166 321.032623,475.345978 
	C321.019257,474.992889 321.007721,475.016327 321.279541,474.984528 
	C321.705444,474.626862 321.859528,474.301025 322.013611,473.975159 
	C322.013611,473.975159 322.016602,474.013397 322.315979,474.031250 
	C323.078705,473.660217 323.542084,473.271332 324.005463,472.882446 
	C329.349091,464.263489 338.704102,463.366608 347.209930,461.043427 
	C363.172241,456.683685 377.440765,449.762817 386.931366,435.503876 
	C392.414886,427.265320 394.950195,417.903595 396.713776,407.983276 
z"/>
<path fill="#C36C4F" opacity="1.000000" stroke="none" 
	d="
M17.901031,443.985046 
	C24.253683,443.331421 30.641356,442.518860 37.054749,442.123566 
	C41.517384,441.848572 43.826954,444.374512 43.873802,448.848358 
	C43.899956,451.346252 44.028152,453.866394 43.765263,456.339813 
	C42.834568,465.096344 39.728912,468.997040 33.178318,469.953278 
	C24.888422,471.163391 20.406607,468.562622 16.716372,460.377014 
	C16.307127,459.469208 15.985045,458.522156 15.394353,457.349091 
	C14.156464,453.059265 13.297863,449.035187 17.193537,445.208435 
	C17.845913,444.552612 17.981491,444.263214 17.988939,443.913788 
	C17.988939,443.913788 17.947031,444.004211 17.901031,443.985046 
z"/>
<path fill="#9CCA7E" opacity="1.000000" stroke="none" 
	d="
M253.436279,484.116699 
	C243.180069,490.646881 242.059692,493.152740 243.980286,506.686096 
	C242.326691,503.698212 239.747116,500.425415 239.176102,496.833374 
	C238.141632,490.325745 243.482452,484.167023 253.436279,484.116699 
z"/>
<path fill="#EFDC8E" opacity="1.000000" stroke="none" 
	d="
M336.328674,499.878418 
	C335.958252,499.798248 335.980377,499.386292 335.992371,499.180115 
	C349.065399,498.986359 362.126434,498.998718 375.665497,499.030762 
	C374.055542,499.369629 371.967590,499.688843 368.989624,500.015991 
	C358.387268,500.046600 348.674927,500.069244 338.962585,500.091888 
	C338.208099,500.047455 337.453613,500.003021 336.328674,499.878418 
z"/>
<path fill="#FFFFFF" opacity="1.000000" stroke="none" 
	d="
M339.170227,500.474487 
	C348.674927,500.069244 358.387268,500.046600 368.567932,500.057312 
	C366.886536,500.393829 364.738739,500.938965 362.586639,500.956512 
	C354.851196,501.019684 347.114258,500.904755 339.170227,500.474487 
z"/>
<path fill="#FDCD51" opacity="1.000000" stroke="none" 
	d="
M397.608673,401.095673 
	C397.859619,402.764404 397.754120,404.647186 397.415771,406.864410 
	C397.206024,405.235809 397.229095,403.272766 397.608673,401.095673 
z"/>
<path fill="#A5D286" opacity="1.000000" stroke="none" 
	d="
M323.681671,472.931366 
	C323.542084,473.271332 323.078705,473.660217 322.296875,474.033264 
	C322.438263,473.671692 322.898071,473.325989 323.681671,472.931366 
z"/>
<path fill="#FFCC4D" opacity="1.000000" stroke="none" 
	d="
M17.732445,443.984741 
	C17.981491,444.263214 17.845913,444.552612 17.354675,444.875061 
	C17.243412,444.663971 17.359680,444.359833 17.732445,443.984741 
z"/>
<path fill="#A5D286" opacity="1.000000" stroke="none" 
	d="
M321.755859,474.047791 
	C321.859528,474.301025 321.705444,474.626862 321.266235,474.984741 
	C321.153381,474.717957 321.325745,474.419220 321.755859,474.047791 
z"/>
<path fill="#FFD984" opacity="1.000000" stroke="none" 
	d="
M426.001953,213.979523 
	C419.618622,234.399612 412.640076,254.138031 401.934753,272.361877 
	C400.237549,275.251099 398.797089,276.169830 395.249176,275.416809 
	C386.517334,273.563568 377.654175,272.249420 368.791199,271.138824 
	C365.846222,270.769775 362.740845,271.680817 358.400757,272.147156 
	C360.895477,268.093536 362.519897,265.088074 364.482300,262.322418 
	C382.597412,236.792023 396.784851,209.165283 406.757355,179.579956 
	C412.799225,161.655579 416.829437,143.061050 422.083405,124.859962 
	C424.890747,115.134720 428.106384,105.501701 431.728577,96.053574 
	C432.758545,93.367058 435.863220,91.475952 438.016479,89.220093 
	C439.016907,92.038017 440.821869,94.839279 440.880615,97.676697 
	C441.158661,111.101952 442.340607,124.716957 440.619781,137.928192 
	C437.754883,159.922440 432.962219,181.667999 428.871277,203.497665 
	C428.231018,206.914078 427.009918,210.221619 426.001953,213.979523 
z"/>
<path fill="#FFD983" opacity="1.000000" stroke="none" 
	d="
M143.278412,359.260742 
	C160.357559,346.851929 176.812851,334.143463 194.106033,322.701355 
	C206.090363,314.771820 218.852356,307.719757 232.016174,302.000153 
	C238.319000,299.261627 246.384369,299.863617 253.608749,300.126556 
	C265.037140,300.542419 276.193359,302.176910 286.770477,307.641205 
	C296.836517,312.841522 299.190186,324.578735 293.125763,331.960876 
	C285.786560,340.894775 278.005615,349.801178 269.022766,356.975189 
	C253.354263,369.488678 236.931976,381.133026 220.265015,392.305328 
	C189.963669,412.617157 156.925171,426.811768 120.783363,432.641479 
	C105.609253,435.089081 90.129990,435.714630 74.766769,436.865814 
	C71.368553,437.120453 67.799843,436.405090 64.439590,435.596436 
	C56.826492,433.764221 55.009109,428.413177 60.641094,423.080841 
	C66.279549,417.742371 72.709015,413.224426 78.896118,408.483032 
	C100.243507,392.123718 121.636467,375.823853 143.278412,359.260742 
z"/>
</svg>